<svg xmlns="http://www.w3.org/2000/svg" width="341" height="512" viewBox="0 0 341 512">
<path d="M 210,443 L 209,444 L 208,444 L 206,446 L 206,451 L 208,453 L 210,453 L 211,454 L 213,454 L 214,455 L 215,455 L 217,457 L 217,459 L 215,461 L 214,461 L 213,462 L 211,462 L 210,461 L 209,461 L 208,460 L 207,460 L 206,459 L 205,460 L 208,463 L 216,463 L 219,460 L 219,456 L 216,453 L 214,453 L 213,452 L 212,452 L 211,451 L 210,451 L 208,449 L 208,448 L 209,447 L 209,446 L 210,445 L 215,445 L 216,446 L 218,446 L 218,445 L 217,444 L 216,444 L 215,443 Z" fill="#9CAF88" stroke="none"/><path d="M 188,443 L 187,444 L 185,444 L 184,445 L 184,446 L 185,447 L 186,446 L 188,446 L 189,445 L 193,445 L 195,447 L 195,448 L 196,449 L 196,450 L 194,452 L 188,452 L 187,453 L 186,453 L 185,454 L 184,454 L 183,455 L 183,457 L 182,458 L 182,459 L 183,460 L 183,461 L 185,463 L 192,463 L 193,462 L 194,462 L 195,461 L 197,463 L 201,463 L 201,461 L 199,461 L 198,460 L 198,447 L 197,446 L 197,445 L 196,444 L 195,444 L 194,443 Z" fill="#9CAF88" stroke="none"/><path d="M 169,443 L 168,444 L 168,463 L 171,463 L 171,450 L 176,445 L 179,445 L 180,444 L 179,443 L 176,443 L 175,444 L 174,444 L 173,445 L 173,446 L 172,447 L 171,447 L 170,446 L 170,443 Z" fill="#9CAF88" stroke="none"/><path d="M 127,443 L 127,444 L 129,446 L 129,447 L 132,450 L 132,451 L 133,452 L 133,453 L 130,456 L 130,457 L 127,460 L 127,461 L 126,462 L 126,463 L 129,463 L 129,462 L 131,460 L 131,459 L 133,457 L 133,456 L 134,455 L 135,455 L 139,459 L 139,460 L 141,462 L 141,463 L 144,463 L 144,462 L 142,460 L 142,459 L 139,456 L 139,455 L 137,453 L 137,451 L 142,446 L 142,445 L 143,444 L 143,443 L 141,443 L 138,446 L 138,447 L 135,450 L 132,447 L 132,446 L 130,444 L 130,443 Z" fill="#9CAF88" stroke="none"/><path d="M 152,437 L 152,442 L 151,443 L 148,443 L 148,445 L 149,446 L 151,446 L 152,447 L 152,461 L 154,463 L 160,463 L 161,462 L 161,460 L 160,460 L 159,461 L 156,461 L 155,460 L 155,458 L 154,457 L 154,456 L 155,455 L 155,447 L 156,446 L 161,446 L 161,443 L 156,443 L 155,442 L 155,437 Z" fill="#9CAF88" stroke="none"/><path d="M 105,434 L 105,463 L 121,463 L 121,461 L 108,461 L 107,460 L 107,450 L 108,449 L 119,449 L 119,447 L 108,447 L 107,446 L 107,437 L 108,436 L 120,436 L 121,435 L 121,434 Z" fill="#9CAF88" stroke="none"/><path d="M 165,154 L 164,155 L 129,155 L 128,156 L 126,156 L 125,157 L 123,157 L 122,158 L 121,158 L 119,160 L 118,160 L 115,163 L 114,163 L 112,165 L 112,166 L 109,169 L 109,170 L 108,171 L 108,172 L 107,173 L 107,174 L 106,175 L 106,177 L 105,178 L 105,180 L 104,181 L 104,188 L 103,189 L 103,191 L 101,193 L 96,193 L 95,192 L 94,192 L 93,193 L 92,192 L 91,192 L 90,193 L 89,193 L 88,192 L 87,193 L 86,193 L 85,192 L 84,192 L 83,193 L 79,193 L 78,192 L 77,193 L 76,192 L 73,192 L 72,193 L 71,193 L 70,192 L 69,193 L 65,193 L 64,194 L 62,194 L 61,195 L 60,195 L 59,196 L 58,196 L 57,197 L 56,197 L 50,203 L 50,204 L 48,206 L 48,208 L 47,209 L 47,211 L 46,212 L 46,247 L 47,248 L 47,249 L 48,250 L 48,251 L 49,251 L 51,253 L 52,253 L 53,254 L 58,254 L 59,255 L 59,353 L 60,354 L 60,359 L 61,360 L 61,362 L 62,363 L 62,365 L 63,366 L 63,367 L 65,369 L 65,370 L 71,376 L 72,376 L 74,378 L 75,378 L 76,379 L 77,379 L 78,380 L 80,380 L 81,381 L 83,381 L 84,382 L 227,382 L 228,381 L 229,382 L 242,382 L 243,381 L 247,381 L 248,380 L 250,380 L 251,379 L 252,379 L 253,378 L 254,378 L 255,377 L 256,377 L 259,374 L 260,374 L 262,372 L 262,371 L 264,369 L 264,368 L 266,366 L 266,364 L 267,363 L 267,362 L 268,361 L 268,358 L 269,357 L 269,302 L 270,301 L 269,300 L 269,263 L 270,262 L 270,261 L 269,260 L 270,259 L 270,255 L 271,254 L 275,254 L 276,253 L 277,253 L 281,249 L 281,248 L 282,247 L 282,213 L 281,212 L 281,209 L 280,208 L 280,206 L 278,204 L 278,203 L 272,197 L 271,197 L 269,195 L 267,195 L 266,194 L 264,194 L 263,193 L 226,193 L 224,191 L 224,187 L 223,186 L 223,182 L 222,181 L 222,177 L 221,176 L 221,175 L 220,174 L 220,173 L 219,172 L 219,171 L 218,170 L 218,169 L 209,160 L 208,160 L 207,159 L 206,159 L 205,158 L 204,158 L 203,157 L 202,157 L 201,156 L 199,156 L 198,155 L 176,155 L 175,154 L 174,154 L 173,155 L 172,154 L 171,155 L 166,155 Z" fill="#9CAF88" stroke="none"/>
</svg>