<?xml version="1.0" encoding="UTF-8"?>
<svg viewBox="0 0 512 320" xmlns="http://www.w3.org/2000/svg" preserveAspectRatio="xMidYMid meet">
  <defs>
    <style type="text/css">
      .stripe1 { fill: #A5A58D; }
      .stripe2 { fill: #DAD7CD; }
      .union { fill: #6C757D; }
      .star { fill: #FFFFFF; }
    </style>
  </defs>
  <!-- Flag stripes -->
  <rect width="512" height="32" y="0" class="stripe1"/>
  <rect width="512" height="32" y="32" class="stripe2"/>
  <rect width="512" height="32" y="64" class="stripe1"/>
  <rect width="512" height="32" y="96" class="stripe2"/>
  <rect width="512" height="32" y="128" class="stripe1"/>
  <rect width="512" height="32" y="160" class="stripe2"/>
  <rect width="512" height="32" y="192" class="stripe1"/>
  <rect width="512" height="32" y="224" class="stripe2"/>
  <rect width="512" height="32" y="256" class="stripe1"/>
  <rect width="512" height="32" y="288" class="stripe2"/>

  <!-- Union (canton) -->
  <rect width="205" height="160" x="0" y="0" class="union"/>

  <!-- Stars in a 5x5 grid for rustic symbolism -->
  <g transform="scale(1.5)">
    <circle cx="12" cy="12" r="2" class="star"/>
    <circle cx="28" cy="12" r="2" class="star"/>
    <circle cx="44" cy="12" r="2" class="star"/>
    <circle cx="60" cy="12" r="2" class="star"/>
    <circle cx="76" cy="12" r="2" class="star"/>
    <circle cx="12" cy="28" r="2" class="star"/>
    <circle cx="28" cy="28" r="2" class="star"/>
    <circle cx="44" cy="28" r="2" class="star"/>
    <circle cx="60" cy="28" r="2" class="star"/>
    <circle cx="76" cy="28" r="2" class="star"/>
    <circle cx="12" cy="44" r="2" class="star"/>
    <circle cx="28" cy="44" r="2" class="star"/>
    <circle cx="44" cy="44" r="2" class="star"/>
    <circle cx="60" cy="44" r="2" class="star"/>
    <circle cx="76" cy="44" r="2" class="star"/>
    <circle cx="12" cy="60" r="2" class="star"/>
    <circle cx="28" cy="60" r="2" class="star"/>
    <circle cx="44" cy="60" r="2" class="star"/>
    <circle cx="60" cy="60" r="2" class="star"/>
    <circle cx="76" cy="60" r="2" class="star"/>
    <circle cx="12" cy="76" r="2" class="star"/>
    <circle cx="28" cy="76" r="2" class="star"/>
    <circle cx="44" cy="76" r="2" class="star"/>
    <circle cx="60" cy="76" r="2" class="star"/>
    <circle cx="76" cy="76" r="2" class="star"/>
  </g>
</svg>
