<svg xmlns="http://www.w3.org/2000/svg" width="341" height="512" viewBox="0 0 341 512">
<path d="M 260,321 L 259,322 L 258,322 L 256,324 L 256,325 L 255,326 L 255,328 L 254,329 L 254,334 L 255,335 L 255,337 L 257,339 L 257,340 L 258,341 L 260,341 L 261,342 L 266,342 L 267,341 L 269,341 L 272,338 L 271,337 L 270,337 L 269,338 L 268,338 L 267,339 L 266,339 L 265,340 L 263,340 L 262,339 L 261,339 L 257,335 L 257,333 L 258,332 L 271,332 L 272,331 L 272,328 L 271,327 L 271,325 L 268,322 L 267,322 L 266,321 Z" fill="#9CAF88" stroke="none"/><path d="M 222,321 L 221,322 L 221,337 L 222,338 L 222,339 L 225,342 L 230,342 L 231,341 L 232,341 L 235,338 L 236,339 L 236,341 L 237,342 L 238,341 L 238,321 L 236,321 L 235,322 L 235,335 L 231,339 L 226,339 L 225,338 L 225,337 L 224,336 L 224,322 L 223,321 Z" fill="#9CAF88" stroke="none"/><path d="M 179,321 L 178,322 L 177,322 L 175,324 L 175,325 L 174,326 L 174,328 L 173,329 L 173,334 L 174,335 L 174,337 L 175,338 L 175,339 L 176,340 L 177,340 L 178,341 L 179,341 L 180,342 L 185,342 L 186,341 L 187,341 L 188,340 L 189,340 L 190,339 L 190,337 L 188,337 L 186,339 L 185,339 L 184,340 L 182,340 L 181,339 L 179,339 L 177,337 L 177,336 L 176,335 L 176,333 L 177,332 L 190,332 L 191,331 L 191,328 L 190,327 L 190,325 L 187,322 L 186,322 L 185,321 Z" fill="#9CAF88" stroke="none"/><path d="M 136,321 L 135,322 L 133,322 L 132,323 L 131,323 L 131,324 L 129,326 L 129,328 L 128,329 L 128,334 L 129,335 L 129,337 L 130,338 L 130,339 L 131,340 L 132,340 L 133,341 L 134,341 L 135,342 L 141,342 L 142,341 L 143,341 L 144,340 L 144,337 L 142,339 L 140,339 L 139,340 L 137,340 L 136,339 L 135,339 L 132,336 L 132,335 L 131,334 L 131,328 L 135,324 L 136,324 L 137,323 L 140,323 L 141,324 L 142,324 L 143,325 L 144,325 L 144,323 L 143,322 L 142,322 L 141,321 Z" fill="#9CAF88" stroke="none"/><path d="M 111,311 L 110,312 L 109,312 L 108,313 L 107,313 L 106,314 L 106,315 L 105,316 L 105,322 L 108,325 L 109,325 L 110,326 L 111,326 L 112,327 L 114,327 L 115,328 L 116,328 L 120,332 L 120,336 L 117,339 L 111,339 L 110,338 L 109,338 L 106,335 L 105,335 L 104,336 L 104,338 L 106,340 L 107,340 L 108,341 L 109,341 L 110,342 L 117,342 L 118,341 L 119,341 L 122,338 L 122,337 L 123,336 L 123,331 L 122,330 L 122,329 L 119,326 L 118,326 L 117,325 L 115,325 L 114,324 L 113,324 L 112,323 L 111,323 L 108,320 L 108,317 L 111,314 L 117,314 L 119,316 L 121,316 L 121,313 L 120,313 L 119,312 L 117,312 L 116,311 Z" fill="#9CAF88" stroke="none"/><path d="M 246,309 L 246,342 L 247,342 L 248,341 L 248,309 Z" fill="#9CAF88" stroke="none"/><path d="M 211,309 L 211,321 L 210,322 L 208,322 L 207,321 L 202,321 L 201,322 L 200,322 L 197,325 L 197,326 L 196,327 L 196,335 L 197,336 L 197,338 L 200,341 L 202,341 L 203,342 L 206,342 L 207,341 L 208,341 L 210,339 L 211,340 L 211,341 L 212,342 L 213,342 L 214,341 L 214,328 L 213,327 L 214,326 L 214,310 L 213,309 Z" fill="#9CAF88" stroke="none"/><path d="M 151,309 L 150,310 L 150,331 L 151,332 L 150,333 L 150,335 L 151,336 L 151,340 L 150,341 L 151,342 L 153,342 L 153,329 L 154,328 L 154,327 L 157,324 L 162,324 L 164,326 L 164,338 L 165,339 L 165,342 L 166,342 L 167,341 L 167,325 L 166,324 L 166,323 L 165,322 L 164,322 L 163,321 L 159,321 L 158,322 L 156,322 L 156,323 L 155,324 L 154,324 L 153,323 L 153,309 Z" fill="#9CAF88" stroke="none"/><path d="M 133,51 L 132,52 L 130,52 L 129,53 L 127,53 L 121,59 L 121,60 L 120,61 L 120,62 L 119,63 L 119,65 L 118,66 L 118,76 L 117,77 L 100,77 L 99,78 L 96,78 L 95,79 L 94,79 L 93,80 L 92,80 L 91,81 L 90,81 L 89,82 L 88,82 L 84,86 L 84,87 L 83,88 L 83,89 L 81,91 L 81,92 L 80,93 L 80,96 L 79,97 L 79,186 L 80,187 L 79,188 L 79,211 L 80,212 L 79,213 L 80,214 L 80,223 L 79,224 L 79,239 L 80,240 L 80,248 L 81,249 L 81,252 L 82,253 L 82,254 L 83,255 L 83,256 L 84,257 L 84,258 L 85,259 L 85,260 L 90,265 L 91,265 L 93,267 L 94,267 L 95,268 L 96,268 L 97,269 L 98,269 L 99,270 L 102,270 L 103,271 L 117,271 L 118,272 L 119,271 L 131,271 L 132,272 L 137,272 L 138,271 L 142,271 L 143,272 L 146,272 L 147,271 L 148,272 L 150,272 L 151,271 L 152,272 L 160,272 L 161,271 L 162,272 L 263,272 L 264,271 L 268,271 L 269,270 L 271,270 L 272,269 L 273,269 L 274,268 L 275,268 L 277,266 L 278,266 L 285,259 L 285,258 L 286,257 L 286,256 L 287,255 L 287,254 L 288,253 L 288,251 L 289,250 L 289,248 L 290,247 L 290,242 L 291,241 L 291,239 L 290,238 L 290,237 L 291,236 L 291,233 L 290,232 L 291,231 L 291,229 L 290,228 L 290,227 L 291,226 L 291,225 L 290,224 L 291,223 L 291,222 L 290,221 L 291,220 L 291,218 L 290,217 L 290,99 L 289,98 L 289,94 L 288,93 L 288,92 L 287,91 L 287,89 L 285,87 L 285,86 L 280,81 L 279,81 L 278,80 L 277,80 L 276,79 L 275,79 L 274,78 L 272,78 L 271,77 L 253,77 L 251,75 L 251,67 L 250,66 L 250,64 L 249,63 L 249,61 L 247,59 L 247,58 L 243,54 L 242,54 L 241,53 L 240,53 L 239,52 L 235,52 L 234,51 L 233,52 L 228,52 L 227,53 L 226,53 L 225,54 L 224,54 L 219,59 L 219,60 L 218,61 L 218,62 L 217,63 L 217,66 L 216,67 L 216,75 L 215,76 L 154,76 L 153,75 L 153,68 L 152,67 L 152,64 L 151,63 L 151,62 L 150,61 L 150,60 L 149,59 L 149,58 L 146,55 L 145,55 L 143,53 L 142,53 L 141,52 L 138,52 L 137,51 Z" fill="#9CAF88" stroke="none"/>
</svg>