<svg xmlns="http://www.w3.org/2000/svg" width="1024" height="1024" viewBox="0 0 1024 1024">
<path d="M 708,129 L 707,130 L 705,130 L 704,131 L 702,131 L 701,132 L 700,132 L 697,135 L 696,135 L 693,138 L 693,139 L 689,143 L 689,144 L 687,146 L 687,147 L 677,157 L 677,158 L 675,160 L 674,160 L 674,161 L 673,162 L 672,162 L 667,167 L 666,167 L 663,170 L 663,171 L 662,172 L 661,172 L 658,175 L 657,175 L 655,177 L 655,178 L 654,179 L 654,180 L 653,181 L 652,181 L 652,182 L 651,183 L 650,183 L 648,185 L 647,185 L 645,187 L 644,187 L 642,189 L 641,189 L 639,191 L 638,191 L 638,192 L 636,194 L 635,194 L 633,196 L 632,196 L 631,197 L 631,198 L 630,199 L 629,199 L 627,201 L 626,201 L 623,204 L 622,204 L 620,206 L 619,206 L 618,207 L 617,207 L 615,209 L 614,209 L 614,210 L 613,211 L 612,211 L 610,213 L 609,213 L 607,215 L 606,215 L 602,219 L 601,219 L 599,221 L 598,221 L 595,224 L 593,224 L 592,225 L 591,225 L 590,226 L 589,226 L 587,228 L 586,228 L 584,230 L 583,230 L 581,232 L 580,232 L 578,234 L 577,234 L 576,235 L 575,235 L 573,237 L 572,237 L 570,239 L 569,239 L 567,241 L 566,241 L 565,242 L 564,242 L 563,243 L 562,243 L 561,244 L 560,244 L 559,245 L 558,245 L 556,247 L 554,247 L 553,248 L 552,248 L 551,249 L 550,249 L 548,251 L 547,251 L 546,252 L 545,252 L 544,253 L 543,253 L 542,254 L 541,254 L 540,255 L 539,255 L 535,259 L 534,259 L 532,261 L 530,261 L 528,263 L 527,263 L 526,264 L 525,264 L 524,265 L 523,265 L 522,266 L 521,266 L 520,267 L 519,267 L 517,269 L 516,269 L 515,270 L 514,270 L 513,271 L 512,271 L 511,272 L 510,272 L 509,273 L 508,273 L 506,275 L 505,275 L 504,276 L 503,276 L 502,277 L 500,277 L 499,278 L 498,278 L 496,280 L 495,280 L 494,281 L 493,281 L 492,282 L 490,282 L 489,283 L 488,283 L 487,284 L 486,284 L 485,285 L 484,285 L 483,286 L 482,286 L 481,287 L 480,287 L 479,288 L 478,288 L 477,289 L 476,289 L 475,290 L 474,290 L 472,292 L 471,292 L 470,293 L 469,293 L 468,294 L 467,294 L 466,295 L 465,295 L 462,298 L 461,298 L 460,299 L 459,299 L 458,300 L 457,300 L 456,301 L 455,301 L 454,302 L 453,302 L 451,304 L 450,304 L 449,305 L 448,305 L 444,309 L 443,309 L 441,311 L 440,311 L 438,313 L 437,313 L 434,316 L 433,316 L 431,318 L 430,318 L 430,319 L 429,320 L 428,320 L 426,322 L 425,322 L 422,325 L 421,325 L 419,327 L 418,327 L 416,329 L 415,329 L 414,330 L 413,330 L 409,334 L 408,334 L 407,335 L 406,335 L 403,338 L 402,338 L 400,340 L 399,340 L 396,343 L 395,343 L 392,346 L 391,346 L 390,347 L 389,347 L 384,352 L 383,352 L 380,355 L 379,355 L 365,369 L 364,369 L 349,384 L 348,384 L 348,385 L 345,388 L 345,389 L 335,399 L 335,400 L 334,401 L 334,402 L 330,406 L 330,407 L 329,408 L 329,409 L 326,412 L 326,413 L 324,415 L 324,416 L 322,418 L 322,419 L 318,423 L 318,424 L 315,427 L 315,428 L 314,429 L 314,430 L 312,432 L 312,434 L 311,435 L 311,437 L 310,438 L 310,439 L 308,441 L 308,442 L 307,443 L 307,444 L 306,445 L 306,446 L 303,449 L 303,450 L 302,451 L 302,452 L 301,453 L 301,454 L 300,455 L 300,457 L 298,459 L 298,460 L 297,461 L 297,462 L 296,463 L 296,465 L 295,466 L 295,469 L 294,470 L 294,471 L 293,472 L 294,473 L 293,474 L 293,476 L 292,477 L 292,479 L 291,480 L 291,481 L 290,482 L 290,485 L 289,486 L 289,487 L 288,488 L 288,493 L 287,494 L 287,496 L 286,497 L 286,500 L 285,501 L 285,505 L 284,506 L 284,510 L 283,511 L 283,514 L 282,515 L 283,516 L 283,519 L 282,520 L 282,523 L 281,524 L 281,529 L 280,530 L 280,540 L 279,541 L 279,578 L 280,579 L 280,584 L 281,585 L 281,591 L 282,592 L 282,597 L 283,598 L 282,599 L 283,600 L 283,606 L 284,607 L 284,610 L 285,611 L 285,615 L 286,616 L 286,619 L 287,620 L 287,623 L 288,624 L 288,627 L 289,628 L 289,629 L 290,630 L 290,633 L 291,634 L 291,635 L 292,636 L 292,638 L 293,639 L 293,641 L 294,642 L 294,645 L 295,646 L 295,648 L 296,649 L 296,650 L 297,651 L 297,654 L 298,655 L 298,656 L 299,657 L 299,658 L 300,659 L 300,663 L 302,665 L 302,666 L 303,667 L 303,668 L 304,669 L 304,670 L 305,671 L 305,672 L 306,673 L 305,674 L 306,675 L 306,676 L 308,678 L 308,680 L 310,682 L 310,683 L 312,685 L 312,688 L 313,689 L 313,690 L 314,691 L 314,692 L 315,693 L 315,694 L 317,696 L 317,697 L 318,698 L 318,699 L 319,700 L 319,701 L 320,702 L 320,703 L 321,704 L 321,705 L 322,706 L 322,707 L 323,708 L 323,709 L 326,712 L 326,713 L 328,715 L 328,717 L 329,718 L 329,726 L 328,727 L 328,729 L 327,730 L 327,731 L 326,732 L 326,733 L 325,734 L 325,735 L 323,737 L 323,738 L 321,740 L 321,741 L 319,743 L 319,744 L 318,745 L 318,746 L 317,747 L 317,748 L 316,749 L 316,750 L 315,751 L 315,752 L 314,753 L 314,754 L 313,755 L 313,756 L 311,758 L 312,759 L 311,760 L 311,761 L 310,762 L 310,763 L 309,764 L 309,765 L 308,766 L 308,767 L 307,768 L 307,769 L 306,770 L 306,771 L 305,772 L 305,773 L 304,774 L 304,775 L 303,776 L 303,777 L 302,778 L 302,779 L 301,780 L 301,782 L 300,783 L 300,785 L 299,786 L 299,787 L 298,788 L 298,789 L 297,790 L 297,792 L 296,793 L 296,794 L 295,795 L 295,796 L 294,797 L 294,800 L 293,801 L 293,802 L 292,803 L 292,804 L 291,805 L 291,806 L 290,807 L 290,808 L 289,809 L 289,810 L 288,811 L 289,812 L 288,813 L 288,816 L 287,817 L 287,819 L 286,820 L 286,823 L 285,824 L 285,826 L 284,827 L 284,830 L 283,831 L 283,833 L 282,834 L 283,835 L 283,836 L 282,837 L 282,840 L 281,841 L 281,844 L 280,845 L 280,848 L 279,849 L 279,852 L 278,853 L 278,858 L 277,859 L 277,871 L 278,872 L 278,874 L 279,875 L 279,877 L 280,878 L 280,880 L 282,882 L 282,883 L 283,884 L 283,885 L 289,891 L 290,891 L 291,892 L 292,892 L 293,893 L 294,893 L 295,894 L 298,894 L 299,895 L 301,895 L 302,896 L 309,896 L 310,897 L 314,897 L 315,896 L 322,896 L 323,895 L 325,895 L 326,894 L 328,894 L 329,893 L 331,893 L 333,891 L 334,891 L 336,889 L 337,889 L 345,881 L 345,880 L 348,877 L 348,876 L 349,875 L 349,874 L 350,873 L 350,871 L 351,870 L 350,869 L 351,868 L 351,866 L 352,865 L 352,862 L 353,861 L 353,860 L 354,859 L 354,858 L 355,857 L 355,856 L 356,855 L 356,851 L 357,850 L 357,848 L 358,847 L 358,845 L 359,844 L 359,843 L 360,842 L 360,840 L 361,839 L 361,837 L 362,836 L 362,834 L 363,833 L 362,832 L 363,831 L 363,829 L 364,828 L 364,827 L 365,826 L 365,825 L 366,824 L 366,823 L 367,822 L 367,820 L 368,819 L 368,816 L 370,814 L 370,813 L 373,810 L 373,809 L 374,808 L 374,806 L 376,804 L 376,803 L 377,802 L 377,801 L 379,799 L 379,798 L 380,797 L 380,796 L 381,795 L 381,793 L 383,791 L 383,790 L 385,788 L 385,787 L 390,782 L 390,781 L 395,776 L 395,775 L 401,769 L 403,769 L 404,768 L 412,768 L 413,767 L 414,768 L 423,768 L 424,769 L 430,769 L 431,770 L 437,770 L 438,771 L 448,771 L 449,772 L 471,772 L 472,771 L 474,771 L 475,772 L 483,772 L 484,771 L 491,771 L 492,770 L 497,770 L 498,769 L 504,769 L 505,768 L 509,768 L 510,767 L 516,767 L 517,766 L 522,766 L 523,765 L 528,765 L 529,764 L 533,764 L 534,763 L 536,763 L 537,762 L 539,762 L 540,761 L 542,761 L 543,760 L 544,760 L 545,759 L 547,759 L 548,758 L 553,758 L 554,757 L 556,757 L 557,756 L 561,756 L 562,755 L 564,755 L 565,754 L 567,754 L 568,753 L 570,753 L 571,752 L 572,753 L 573,752 L 575,752 L 576,751 L 577,751 L 578,750 L 580,750 L 581,749 L 582,749 L 583,748 L 585,748 L 586,747 L 587,747 L 588,746 L 592,746 L 593,745 L 595,745 L 596,744 L 598,744 L 599,743 L 600,743 L 601,742 L 602,742 L 603,741 L 604,741 L 605,740 L 606,741 L 607,740 L 608,740 L 609,739 L 610,739 L 611,738 L 612,738 L 614,736 L 616,736 L 617,735 L 619,735 L 620,734 L 621,734 L 623,732 L 624,732 L 626,730 L 627,730 L 628,729 L 630,729 L 631,728 L 632,728 L 633,727 L 634,727 L 635,726 L 636,726 L 639,723 L 640,723 L 641,722 L 642,722 L 643,721 L 644,721 L 646,719 L 647,719 L 648,718 L 649,718 L 650,717 L 651,717 L 652,716 L 653,716 L 653,715 L 654,714 L 655,714 L 656,713 L 657,713 L 659,711 L 660,711 L 662,709 L 663,709 L 665,707 L 666,707 L 669,704 L 670,704 L 678,696 L 679,696 L 680,695 L 681,695 L 683,693 L 684,693 L 687,690 L 688,690 L 690,688 L 691,688 L 693,686 L 694,686 L 697,683 L 697,682 L 717,662 L 717,661 L 721,657 L 721,656 L 726,651 L 726,650 L 729,647 L 729,646 L 731,644 L 731,643 L 732,642 L 732,641 L 735,638 L 735,637 L 738,634 L 738,633 L 740,631 L 740,630 L 744,626 L 744,625 L 746,623 L 746,621 L 747,620 L 747,619 L 748,618 L 748,617 L 749,616 L 749,615 L 750,614 L 750,613 L 751,612 L 751,611 L 752,610 L 752,608 L 754,606 L 754,605 L 756,603 L 756,602 L 757,601 L 757,600 L 758,599 L 758,598 L 760,596 L 760,594 L 761,593 L 761,591 L 762,590 L 762,589 L 763,588 L 763,586 L 764,585 L 764,584 L 765,583 L 765,582 L 766,581 L 766,580 L 767,579 L 767,578 L 768,577 L 768,576 L 769,575 L 769,573 L 770,572 L 769,571 L 770,570 L 770,567 L 771,566 L 771,563 L 772,562 L 772,561 L 774,559 L 774,558 L 775,557 L 775,556 L 776,555 L 775,554 L 776,553 L 776,551 L 777,550 L 777,546 L 778,545 L 778,544 L 779,543 L 779,541 L 780,540 L 780,537 L 781,536 L 780,535 L 780,534 L 781,533 L 781,530 L 782,529 L 781,528 L 782,527 L 782,526 L 783,525 L 783,523 L 784,522 L 784,520 L 785,519 L 785,515 L 786,514 L 786,508 L 787,507 L 787,495 L 788,494 L 788,490 L 789,489 L 789,481 L 790,480 L 789,479 L 789,478 L 790,477 L 790,471 L 791,470 L 791,455 L 792,454 L 792,442 L 791,441 L 791,438 L 792,437 L 792,412 L 791,411 L 791,401 L 790,400 L 790,393 L 789,392 L 789,374 L 788,373 L 788,369 L 787,368 L 787,356 L 786,355 L 786,352 L 785,351 L 785,347 L 784,346 L 784,342 L 783,341 L 783,338 L 782,337 L 782,333 L 781,332 L 781,329 L 782,328 L 781,327 L 781,323 L 780,322 L 780,317 L 779,316 L 779,311 L 778,310 L 778,306 L 777,305 L 777,301 L 776,300 L 776,296 L 775,295 L 776,294 L 775,293 L 775,291 L 774,290 L 774,288 L 773,287 L 773,285 L 772,284 L 772,282 L 771,281 L 771,279 L 770,278 L 770,273 L 769,272 L 770,271 L 770,270 L 769,269 L 769,264 L 768,263 L 768,260 L 767,259 L 767,257 L 766,256 L 766,252 L 765,251 L 765,248 L 764,247 L 764,245 L 763,244 L 764,243 L 763,242 L 763,240 L 762,239 L 762,237 L 761,236 L 761,234 L 760,233 L 760,232 L 759,231 L 759,229 L 758,228 L 758,226 L 757,225 L 757,221 L 756,220 L 756,217 L 755,216 L 755,212 L 754,211 L 754,210 L 753,209 L 753,208 L 752,207 L 752,205 L 753,204 L 752,203 L 752,201 L 751,200 L 751,198 L 750,197 L 750,195 L 749,194 L 749,192 L 748,191 L 748,189 L 747,188 L 747,186 L 746,185 L 747,184 L 745,182 L 745,180 L 744,179 L 744,176 L 743,175 L 743,174 L 742,173 L 742,171 L 741,170 L 741,169 L 740,168 L 740,163 L 739,162 L 739,161 L 738,160 L 738,158 L 737,157 L 737,156 L 736,155 L 736,153 L 735,152 L 735,149 L 734,148 L 734,145 L 733,144 L 733,142 L 731,140 L 731,139 L 730,139 L 729,138 L 728,138 L 726,136 L 725,137 L 724,136 L 724,135 L 722,133 L 722,132 L 720,130 L 720,129 Z" fill="#9CAF88" stroke="none"/>
</svg>