<svg xmlns="http://www.w3.org/2000/svg" width="341" height="512" viewBox="0 0 341 512">
<path d="M 258,443 L 258,463 L 260,463 L 261,462 L 261,461 L 260,460 L 260,453 L 261,452 L 261,449 L 265,445 L 269,445 L 270,446 L 271,446 L 272,447 L 272,463 L 274,463 L 274,446 L 271,443 L 265,443 L 262,446 L 261,446 L 260,445 L 260,443 Z" fill="#9CAF88" stroke="none"/><path d="M 238,443 L 237,444 L 236,444 L 235,445 L 235,446 L 238,446 L 239,445 L 244,445 L 247,448 L 247,451 L 246,452 L 238,452 L 237,453 L 236,453 L 235,454 L 235,455 L 234,456 L 234,460 L 235,461 L 235,462 L 236,462 L 237,463 L 243,463 L 244,462 L 245,462 L 246,461 L 248,463 L 252,463 L 253,462 L 252,461 L 250,461 L 249,460 L 249,446 L 247,444 L 246,444 L 245,443 Z" fill="#9CAF88" stroke="none"/><path d="M 217,443 L 216,444 L 215,444 L 214,445 L 214,446 L 213,447 L 213,448 L 212,449 L 212,457 L 213,458 L 213,459 L 216,462 L 217,462 L 218,463 L 224,463 L 225,462 L 226,462 L 228,460 L 228,459 L 226,459 L 224,461 L 219,461 L 218,460 L 217,460 L 216,459 L 216,458 L 214,456 L 214,454 L 215,453 L 228,453 L 229,452 L 229,450 L 228,449 L 228,447 L 224,443 Z" fill="#9CAF88" stroke="none"/><path d="M 141,443 L 141,466 L 140,467 L 140,469 L 141,470 L 141,472 L 143,472 L 143,461 L 144,460 L 147,463 L 153,463 L 156,460 L 156,459 L 157,458 L 157,457 L 158,456 L 158,450 L 157,449 L 157,447 L 156,446 L 156,445 L 155,444 L 154,444 L 153,443 L 147,443 L 144,446 L 143,445 L 143,443 Z" fill="#9CAF88" stroke="none"/><path d="M 122,443 L 121,444 L 120,444 L 119,445 L 119,446 L 118,447 L 118,448 L 117,449 L 117,457 L 118,458 L 118,459 L 119,460 L 119,461 L 120,461 L 121,462 L 122,462 L 123,463 L 129,463 L 130,462 L 131,462 L 133,460 L 133,459 L 132,458 L 129,461 L 123,461 L 120,458 L 120,456 L 119,455 L 119,454 L 120,453 L 134,453 L 134,450 L 133,449 L 133,447 L 129,443 Z" fill="#9CAF88" stroke="none"/><path d="M 100,443 L 99,444 L 98,444 L 95,447 L 95,448 L 94,449 L 94,457 L 95,458 L 95,459 L 99,463 L 107,463 L 108,462 L 109,462 L 110,461 L 110,460 L 111,459 L 108,459 L 106,461 L 101,461 L 100,460 L 99,460 L 98,459 L 98,458 L 97,457 L 97,456 L 96,455 L 96,454 L 97,453 L 111,453 L 111,449 L 110,448 L 110,447 L 109,446 L 109,445 L 108,445 L 106,443 Z" fill="#9CAF88" stroke="none"/><path d="M 183,433 L 182,434 L 181,434 L 180,435 L 179,435 L 176,438 L 176,439 L 175,440 L 175,441 L 174,442 L 174,445 L 173,446 L 173,450 L 174,451 L 174,454 L 175,455 L 175,456 L 176,457 L 176,458 L 179,461 L 180,461 L 181,462 L 182,462 L 183,463 L 191,463 L 192,462 L 193,462 L 194,461 L 195,461 L 196,460 L 196,457 L 195,457 L 193,459 L 192,459 L 191,460 L 190,460 L 189,461 L 186,461 L 185,460 L 183,460 L 182,459 L 181,459 L 178,456 L 178,455 L 177,454 L 177,453 L 176,452 L 176,444 L 177,443 L 177,442 L 178,441 L 178,440 L 181,437 L 182,437 L 183,436 L 184,436 L 185,435 L 189,435 L 190,436 L 192,436 L 195,439 L 197,439 L 197,437 L 195,435 L 194,435 L 193,434 L 191,434 L 190,433 Z" fill="#9CAF88" stroke="none"/><path d="M 66,433 L 65,434 L 65,463 L 76,463 L 77,462 L 80,462 L 81,461 L 82,461 L 84,459 L 85,459 L 85,458 L 87,456 L 87,455 L 88,454 L 88,451 L 89,450 L 89,447 L 88,446 L 88,442 L 87,441 L 87,440 L 85,438 L 85,437 L 84,437 L 82,435 L 81,435 L 80,434 L 77,434 L 76,433 Z" fill="#9CAF88" stroke="none"/><path d="M 203,431 L 203,463 L 205,463 L 205,431 Z" fill="#9CAF88" stroke="none"/><path d="M 178,220 L 177,221 L 174,221 L 173,222 L 171,222 L 170,223 L 169,223 L 168,224 L 167,224 L 166,225 L 165,225 L 164,226 L 163,226 L 161,228 L 160,228 L 158,230 L 157,230 L 152,235 L 152,236 L 149,239 L 149,240 L 147,242 L 147,243 L 146,244 L 146,245 L 145,246 L 145,247 L 144,248 L 144,249 L 143,250 L 143,252 L 142,253 L 142,254 L 141,255 L 141,258 L 140,259 L 140,262 L 139,263 L 139,268 L 138,269 L 138,272 L 137,273 L 131,273 L 130,274 L 129,274 L 128,273 L 95,273 L 94,274 L 89,274 L 88,275 L 85,275 L 84,276 L 83,276 L 82,277 L 81,277 L 80,278 L 79,278 L 77,280 L 76,280 L 71,285 L 71,286 L 69,288 L 69,289 L 68,290 L 68,291 L 67,292 L 67,294 L 66,295 L 66,309 L 67,310 L 67,311 L 68,312 L 68,313 L 69,313 L 70,314 L 73,314 L 74,315 L 75,315 L 76,316 L 76,319 L 77,320 L 77,321 L 76,322 L 76,332 L 75,333 L 75,337 L 74,338 L 74,341 L 73,342 L 73,345 L 72,346 L 72,347 L 71,348 L 71,350 L 70,351 L 70,352 L 69,353 L 69,354 L 68,355 L 68,356 L 67,357 L 67,358 L 66,359 L 66,360 L 64,362 L 64,363 L 62,365 L 62,366 L 61,367 L 61,368 L 60,369 L 60,375 L 61,376 L 61,377 L 64,380 L 65,380 L 66,381 L 73,381 L 74,382 L 267,382 L 268,381 L 275,381 L 276,380 L 278,380 L 279,379 L 281,379 L 283,377 L 284,377 L 284,376 L 285,375 L 285,374 L 286,373 L 286,371 L 285,370 L 285,369 L 284,368 L 284,367 L 282,365 L 282,364 L 280,362 L 280,361 L 279,360 L 279,359 L 277,357 L 277,356 L 276,355 L 276,354 L 275,353 L 275,352 L 274,351 L 274,349 L 273,348 L 273,346 L 272,345 L 272,343 L 271,342 L 271,339 L 270,338 L 270,331 L 269,330 L 269,317 L 272,314 L 274,314 L 278,310 L 278,309 L 279,308 L 279,297 L 278,296 L 278,294 L 277,293 L 277,291 L 276,290 L 276,289 L 275,288 L 275,287 L 267,279 L 266,279 L 265,278 L 264,278 L 263,277 L 262,277 L 261,276 L 260,276 L 259,275 L 257,275 L 256,274 L 252,274 L 251,273 L 250,274 L 249,273 L 248,273 L 247,274 L 243,274 L 242,273 L 240,273 L 239,274 L 235,274 L 234,273 L 233,274 L 226,274 L 225,273 L 222,273 L 221,274 L 219,274 L 218,273 L 217,274 L 216,273 L 215,274 L 207,274 L 206,273 L 205,274 L 202,274 L 201,273 L 196,273 L 195,274 L 194,273 L 193,273 L 192,274 L 189,274 L 188,273 L 184,273 L 183,274 L 181,274 L 180,273 L 179,273 L 178,272 L 178,263 L 179,262 L 179,259 L 181,257 L 181,256 L 185,252 L 187,252 L 188,251 L 252,251 L 253,250 L 255,250 L 256,249 L 257,249 L 260,246 L 260,245 L 261,244 L 261,242 L 262,241 L 262,237 L 261,236 L 261,233 L 260,232 L 260,231 L 255,226 L 254,226 L 252,224 L 251,224 L 250,223 L 249,223 L 248,222 L 246,222 L 245,221 L 240,221 L 239,220 Z" fill="#9CAF88" stroke="none"/><path d="M 93,202 L 92,203 L 87,203 L 86,204 L 84,204 L 83,205 L 82,205 L 81,206 L 80,206 L 79,207 L 78,207 L 71,214 L 71,215 L 70,216 L 70,217 L 69,218 L 69,221 L 68,222 L 68,225 L 67,226 L 67,237 L 68,238 L 68,239 L 69,240 L 69,241 L 70,242 L 70,243 L 71,244 L 71,245 L 77,251 L 78,251 L 79,252 L 80,252 L 81,253 L 82,253 L 83,254 L 84,254 L 85,255 L 88,255 L 89,256 L 98,256 L 99,255 L 102,255 L 103,254 L 104,254 L 105,253 L 106,253 L 107,252 L 108,252 L 111,249 L 112,249 L 113,248 L 113,247 L 116,244 L 116,243 L 117,242 L 117,240 L 118,239 L 118,237 L 119,236 L 119,232 L 120,231 L 120,227 L 119,226 L 119,223 L 118,222 L 118,219 L 117,218 L 117,217 L 116,216 L 116,215 L 114,213 L 114,212 L 110,208 L 109,208 L 107,206 L 106,206 L 105,205 L 104,205 L 103,204 L 101,204 L 100,203 L 94,203 Z" fill="#9CAF88" stroke="none"/><path d="M 134,161 L 133,162 L 131,162 L 130,163 L 129,163 L 128,164 L 127,164 L 122,169 L 122,170 L 120,172 L 120,174 L 119,175 L 119,178 L 118,179 L 118,186 L 119,187 L 119,191 L 120,192 L 120,193 L 122,195 L 122,196 L 124,198 L 125,198 L 127,200 L 128,200 L 129,201 L 130,201 L 131,202 L 132,202 L 133,203 L 146,203 L 147,202 L 148,202 L 149,201 L 150,201 L 151,200 L 152,200 L 157,195 L 157,194 L 158,193 L 158,192 L 159,191 L 159,190 L 160,189 L 160,187 L 161,186 L 161,179 L 160,178 L 160,174 L 159,173 L 159,172 L 158,171 L 158,170 L 156,168 L 156,167 L 155,166 L 154,166 L 151,163 L 150,163 L 149,162 L 147,162 L 146,161 Z" fill="#9CAF88" stroke="none"/>
</svg>