<svg xmlns="http://www.w3.org/2000/svg" width="1024" height="1024" viewBox="0 0 1024 1024">
<path d="M 508,496 L 507,497 L 506,497 L 504,499 L 503,499 L 503,500 L 501,502 L 501,508 L 502,509 L 502,510 L 505,513 L 505,514 L 510,519 L 510,520 L 513,523 L 513,524 L 519,530 L 519,531 L 524,536 L 525,536 L 530,541 L 531,541 L 534,544 L 534,545 L 535,546 L 536,546 L 539,549 L 539,550 L 538,551 L 534,551 L 533,550 L 532,551 L 531,550 L 506,550 L 505,551 L 504,550 L 497,550 L 496,551 L 488,551 L 487,550 L 477,550 L 476,551 L 464,551 L 463,550 L 439,550 L 438,551 L 437,551 L 436,550 L 428,550 L 427,551 L 424,551 L 423,550 L 422,550 L 421,551 L 410,551 L 409,552 L 404,552 L 403,553 L 401,553 L 400,554 L 399,554 L 399,555 L 398,556 L 398,558 L 397,559 L 398,560 L 398,563 L 397,564 L 397,569 L 398,570 L 398,571 L 401,574 L 408,574 L 409,575 L 417,575 L 418,574 L 423,574 L 424,575 L 432,575 L 433,574 L 437,574 L 438,575 L 442,575 L 443,574 L 444,575 L 453,575 L 454,574 L 461,574 L 462,575 L 463,574 L 465,574 L 466,573 L 467,573 L 468,574 L 470,574 L 471,575 L 473,575 L 474,574 L 475,574 L 476,575 L 477,574 L 512,574 L 513,575 L 514,575 L 515,574 L 533,574 L 534,573 L 539,573 L 540,574 L 539,575 L 539,576 L 536,579 L 535,579 L 533,581 L 532,581 L 531,582 L 531,583 L 527,587 L 526,587 L 511,602 L 511,603 L 509,605 L 509,606 L 506,609 L 506,610 L 505,611 L 505,612 L 504,613 L 504,616 L 503,617 L 503,618 L 504,619 L 504,621 L 505,622 L 505,623 L 507,625 L 509,625 L 510,626 L 516,626 L 517,625 L 518,625 L 519,624 L 520,624 L 521,623 L 522,623 L 524,621 L 525,621 L 529,617 L 530,617 L 532,615 L 533,615 L 533,614 L 545,602 L 546,602 L 546,601 L 549,598 L 550,598 L 551,597 L 551,596 L 566,581 L 567,581 L 570,578 L 570,577 L 571,576 L 572,576 L 575,573 L 575,572 L 576,571 L 576,570 L 577,569 L 577,568 L 578,567 L 578,565 L 579,564 L 579,559 L 578,558 L 578,556 L 577,555 L 577,553 L 576,552 L 576,551 L 575,550 L 575,549 L 572,546 L 572,545 L 568,541 L 567,541 L 562,536 L 561,536 L 557,532 L 556,532 L 554,530 L 553,530 L 544,521 L 544,520 L 539,515 L 538,515 L 537,514 L 537,513 L 535,511 L 534,511 L 523,500 L 522,500 L 520,498 L 519,498 L 518,497 L 517,497 L 516,496 Z" fill="#9CAF88" stroke="none"/><path d="M 203,375 L 202,376 L 196,376 L 195,377 L 193,377 L 192,378 L 191,377 L 190,378 L 189,378 L 188,379 L 186,379 L 185,380 L 183,380 L 182,381 L 181,381 L 180,382 L 179,382 L 178,383 L 177,383 L 176,384 L 175,384 L 174,385 L 173,385 L 170,388 L 168,388 L 166,390 L 165,390 L 164,391 L 163,391 L 160,394 L 159,394 L 156,397 L 155,397 L 154,398 L 153,398 L 150,401 L 149,401 L 147,403 L 146,403 L 144,405 L 143,405 L 142,406 L 141,406 L 140,407 L 139,407 L 135,411 L 134,411 L 133,412 L 132,412 L 130,414 L 129,414 L 128,415 L 127,415 L 124,418 L 123,418 L 121,420 L 120,420 L 118,422 L 117,422 L 114,425 L 113,425 L 108,430 L 107,430 L 104,433 L 103,433 L 97,439 L 96,439 L 94,441 L 93,441 L 91,443 L 91,444 L 90,445 L 89,445 L 87,447 L 87,454 L 86,455 L 86,464 L 84,466 L 84,467 L 85,468 L 85,478 L 84,479 L 84,488 L 85,489 L 85,494 L 84,495 L 84,500 L 83,501 L 83,512 L 84,513 L 84,523 L 85,524 L 85,544 L 84,545 L 84,549 L 85,550 L 85,558 L 86,559 L 86,571 L 87,572 L 87,573 L 86,574 L 86,575 L 87,576 L 87,592 L 88,593 L 88,594 L 87,595 L 87,599 L 88,600 L 88,602 L 87,603 L 87,605 L 88,606 L 88,637 L 89,638 L 89,642 L 88,643 L 88,655 L 87,656 L 87,658 L 88,659 L 88,666 L 87,667 L 87,674 L 88,675 L 88,679 L 89,680 L 89,683 L 92,686 L 92,687 L 93,687 L 95,689 L 96,689 L 98,691 L 100,691 L 101,692 L 106,692 L 107,693 L 111,693 L 112,694 L 119,694 L 120,695 L 129,695 L 130,696 L 147,696 L 148,697 L 149,696 L 150,696 L 151,697 L 152,697 L 153,696 L 154,696 L 155,697 L 175,697 L 176,698 L 184,698 L 185,697 L 190,697 L 191,698 L 211,698 L 212,699 L 216,699 L 217,698 L 218,698 L 219,699 L 231,699 L 232,700 L 251,700 L 252,701 L 253,700 L 263,700 L 264,701 L 273,701 L 274,702 L 283,702 L 284,701 L 287,701 L 288,702 L 290,702 L 291,701 L 292,702 L 295,702 L 296,701 L 304,701 L 305,702 L 347,702 L 348,701 L 351,701 L 352,700 L 353,700 L 354,701 L 355,700 L 358,700 L 359,701 L 360,701 L 361,700 L 362,700 L 363,699 L 364,699 L 367,696 L 369,696 L 369,695 L 370,694 L 371,694 L 371,693 L 372,692 L 373,692 L 374,691 L 375,691 L 382,684 L 382,683 L 383,682 L 384,682 L 386,680 L 387,680 L 387,679 L 389,677 L 390,677 L 402,665 L 403,665 L 409,659 L 409,658 L 410,657 L 411,657 L 412,656 L 412,655 L 414,653 L 415,653 L 420,648 L 421,648 L 421,647 L 422,646 L 423,646 L 424,645 L 425,645 L 426,644 L 426,643 L 428,641 L 429,641 L 434,636 L 434,634 L 435,633 L 435,632 L 436,631 L 436,625 L 437,624 L 437,621 L 438,620 L 438,617 L 437,616 L 437,610 L 436,609 L 436,608 L 435,607 L 435,605 L 432,602 L 432,601 L 430,601 L 429,600 L 421,600 L 416,605 L 416,607 L 415,608 L 415,611 L 414,612 L 414,616 L 413,617 L 414,618 L 414,622 L 406,630 L 404,630 L 401,633 L 401,634 L 393,642 L 392,642 L 388,646 L 388,647 L 382,653 L 381,653 L 379,655 L 379,656 L 378,657 L 377,657 L 376,658 L 375,658 L 372,661 L 371,661 L 370,660 L 370,648 L 369,647 L 369,643 L 370,642 L 370,640 L 369,639 L 369,636 L 370,635 L 370,631 L 369,630 L 369,628 L 370,627 L 370,590 L 369,589 L 369,585 L 370,584 L 370,567 L 369,566 L 369,559 L 368,558 L 368,552 L 369,551 L 369,545 L 368,544 L 368,540 L 367,539 L 367,538 L 368,537 L 368,536 L 367,535 L 367,531 L 368,530 L 367,529 L 368,528 L 368,527 L 367,526 L 367,525 L 368,524 L 368,521 L 367,520 L 367,519 L 368,518 L 368,512 L 367,511 L 367,473 L 366,472 L 367,471 L 367,462 L 370,459 L 371,459 L 375,455 L 376,455 L 378,453 L 379,453 L 380,452 L 380,451 L 392,439 L 393,439 L 399,433 L 400,433 L 403,430 L 404,430 L 404,429 L 406,427 L 407,427 L 411,423 L 414,423 L 416,425 L 416,445 L 415,446 L 415,453 L 414,454 L 414,468 L 415,469 L 415,486 L 416,487 L 416,491 L 415,492 L 415,506 L 416,507 L 416,517 L 417,518 L 417,519 L 418,520 L 418,521 L 419,522 L 420,522 L 421,523 L 430,523 L 431,522 L 433,522 L 436,519 L 436,517 L 437,516 L 437,514 L 438,513 L 438,498 L 437,497 L 437,492 L 438,491 L 438,484 L 439,483 L 438,482 L 439,481 L 439,456 L 438,455 L 438,448 L 439,447 L 439,440 L 440,439 L 440,433 L 439,432 L 439,425 L 438,424 L 438,415 L 439,414 L 439,405 L 438,404 L 438,403 L 437,402 L 437,397 L 436,396 L 436,394 L 434,392 L 434,390 L 433,390 L 432,389 L 432,388 L 431,388 L 430,387 L 429,387 L 428,386 L 419,386 L 418,385 L 417,385 L 416,384 L 413,384 L 412,383 L 411,383 L 410,382 L 407,382 L 406,381 L 403,381 L 402,382 L 400,382 L 399,381 L 385,381 L 384,380 L 361,380 L 360,379 L 350,379 L 349,380 L 348,380 L 347,379 L 345,379 L 344,378 L 303,378 L 302,377 L 289,377 L 288,378 L 284,378 L 282,376 L 281,377 L 280,376 L 279,376 L 278,377 L 256,377 L 255,376 L 254,377 L 253,377 L 252,376 L 245,376 L 244,377 L 227,377 L 226,376 L 224,376 L 223,377 L 222,377 L 221,376 L 220,376 L 219,375 L 218,376 L 212,376 L 211,375 Z" fill="#9CAF88" stroke="none"/><path d="M 742,290 L 741,291 L 734,291 L 733,292 L 731,292 L 728,295 L 727,295 L 725,297 L 724,297 L 716,305 L 716,306 L 710,312 L 709,312 L 697,324 L 696,324 L 696,325 L 694,327 L 693,327 L 692,328 L 692,329 L 688,333 L 688,334 L 686,336 L 685,336 L 684,337 L 684,338 L 683,339 L 682,339 L 680,341 L 679,341 L 666,354 L 665,354 L 664,355 L 664,356 L 663,357 L 662,357 L 651,368 L 650,368 L 648,370 L 647,370 L 630,387 L 630,388 L 627,391 L 626,391 L 624,393 L 624,394 L 622,396 L 621,396 L 618,399 L 617,399 L 611,405 L 610,405 L 610,406 L 603,413 L 602,413 L 602,414 L 595,421 L 594,421 L 592,423 L 592,424 L 591,425 L 590,425 L 577,438 L 576,438 L 567,447 L 567,448 L 564,451 L 564,452 L 561,455 L 561,456 L 560,457 L 560,459 L 559,460 L 559,461 L 558,462 L 558,475 L 559,476 L 559,477 L 563,481 L 563,482 L 566,485 L 567,485 L 569,487 L 571,487 L 572,488 L 575,488 L 576,489 L 593,489 L 594,488 L 595,489 L 596,488 L 600,488 L 602,490 L 602,532 L 601,533 L 602,534 L 602,559 L 601,560 L 602,561 L 602,590 L 601,591 L 601,599 L 602,600 L 601,601 L 601,603 L 602,604 L 602,607 L 601,608 L 601,626 L 602,627 L 602,628 L 601,629 L 601,633 L 602,634 L 602,646 L 601,647 L 601,652 L 602,653 L 602,656 L 604,658 L 604,659 L 607,662 L 607,663 L 608,663 L 610,665 L 613,665 L 614,666 L 615,665 L 616,666 L 618,666 L 619,665 L 620,665 L 621,666 L 623,666 L 624,665 L 625,666 L 651,666 L 652,665 L 664,665 L 665,664 L 666,665 L 670,665 L 671,664 L 676,664 L 677,665 L 692,665 L 693,664 L 696,664 L 697,663 L 699,663 L 701,661 L 702,661 L 703,660 L 703,659 L 704,658 L 705,658 L 706,657 L 706,656 L 707,655 L 707,652 L 708,651 L 708,643 L 709,642 L 709,640 L 708,639 L 709,638 L 709,634 L 708,633 L 708,632 L 709,631 L 709,629 L 708,628 L 708,627 L 709,626 L 709,625 L 708,624 L 708,622 L 709,621 L 709,620 L 708,619 L 709,618 L 709,616 L 710,615 L 708,613 L 708,610 L 709,609 L 709,608 L 708,607 L 708,605 L 709,604 L 709,598 L 708,597 L 708,596 L 709,595 L 709,586 L 708,585 L 708,580 L 709,579 L 709,572 L 708,571 L 708,564 L 709,563 L 709,559 L 710,558 L 710,554 L 711,553 L 711,547 L 712,546 L 712,542 L 713,541 L 713,538 L 714,537 L 714,536 L 715,535 L 715,532 L 716,531 L 716,530 L 718,528 L 718,524 L 719,523 L 720,523 L 722,521 L 722,520 L 723,519 L 723,518 L 727,514 L 728,514 L 730,512 L 731,512 L 732,511 L 733,511 L 736,508 L 737,508 L 739,506 L 740,506 L 741,505 L 743,505 L 744,504 L 753,504 L 754,505 L 756,505 L 757,506 L 759,506 L 760,507 L 762,507 L 764,509 L 765,509 L 766,510 L 769,510 L 771,512 L 772,512 L 775,515 L 776,515 L 779,518 L 779,519 L 780,520 L 780,521 L 781,522 L 782,522 L 786,526 L 786,527 L 787,528 L 787,530 L 788,531 L 788,532 L 789,533 L 789,535 L 790,536 L 790,542 L 791,543 L 791,545 L 792,546 L 791,547 L 792,548 L 792,564 L 793,565 L 792,566 L 793,567 L 793,590 L 794,591 L 794,597 L 793,598 L 793,600 L 794,601 L 794,607 L 793,608 L 793,611 L 794,612 L 794,615 L 793,616 L 793,638 L 794,639 L 794,655 L 795,656 L 795,659 L 796,660 L 796,661 L 800,665 L 801,665 L 802,666 L 803,666 L 804,667 L 808,667 L 809,668 L 821,668 L 822,669 L 823,668 L 824,668 L 825,669 L 829,669 L 830,670 L 840,670 L 841,669 L 853,669 L 854,670 L 855,669 L 856,669 L 857,670 L 858,669 L 860,669 L 861,670 L 862,669 L 875,669 L 876,668 L 877,668 L 878,667 L 879,668 L 881,668 L 883,666 L 886,666 L 887,665 L 888,665 L 889,664 L 889,662 L 891,660 L 891,659 L 894,656 L 894,653 L 895,652 L 895,650 L 896,649 L 896,641 L 897,640 L 897,635 L 898,634 L 898,626 L 897,625 L 897,623 L 898,622 L 898,613 L 897,612 L 897,611 L 898,610 L 898,605 L 897,604 L 897,601 L 898,600 L 898,598 L 897,597 L 897,593 L 898,592 L 898,590 L 897,589 L 898,588 L 898,583 L 897,582 L 897,564 L 898,563 L 898,559 L 897,558 L 897,542 L 896,541 L 896,531 L 895,530 L 895,529 L 896,528 L 896,527 L 895,526 L 895,525 L 896,524 L 896,516 L 897,515 L 896,514 L 896,513 L 897,512 L 897,510 L 898,509 L 898,508 L 897,507 L 897,506 L 896,505 L 897,504 L 897,502 L 898,501 L 898,500 L 897,499 L 899,497 L 901,497 L 902,496 L 920,496 L 920,495 L 921,494 L 922,494 L 923,493 L 928,493 L 929,492 L 930,492 L 931,491 L 931,490 L 932,489 L 934,489 L 934,487 L 935,486 L 935,483 L 936,482 L 937,482 L 937,475 L 936,474 L 936,471 L 934,469 L 934,468 L 933,467 L 933,466 L 921,454 L 921,453 L 916,448 L 915,448 L 912,445 L 912,444 L 911,444 L 908,441 L 907,441 L 904,438 L 903,438 L 902,437 L 901,437 L 899,435 L 898,435 L 895,432 L 894,432 L 893,431 L 893,430 L 882,419 L 881,419 L 858,396 L 858,395 L 856,393 L 855,393 L 849,387 L 848,387 L 846,385 L 846,384 L 845,384 L 844,383 L 844,382 L 842,382 L 841,381 L 841,378 L 838,375 L 837,375 L 835,373 L 835,372 L 834,372 L 833,371 L 833,370 L 832,370 L 828,366 L 828,365 L 823,360 L 822,360 L 802,340 L 801,340 L 800,339 L 799,339 L 795,335 L 794,335 L 793,334 L 793,333 L 787,327 L 786,327 L 785,326 L 785,325 L 777,317 L 776,317 L 775,316 L 774,316 L 766,308 L 765,308 L 762,305 L 761,305 L 760,304 L 760,303 L 759,302 L 759,301 L 758,300 L 757,300 L 755,298 L 755,297 L 753,297 L 750,294 L 750,293 L 749,293 L 747,291 L 743,291 Z" fill="#9CAF88" stroke="none"/>
</svg>